<?xml version="1.0" encoding="UTF-8" standalone="no" ?>
<!DOCTYPE svg PUBLIC "-//W3C//DTD SVG 1.1//EN" "http://www.w3.org/Graphics/SVG/1.1/DTD/svg11.dtd">
<svg xmlns="http://www.w3.org/2000/svg" xmlns:xlink="http://www.w3.org/1999/xlink" version="1.1" width="1080" height="1080" viewBox="0 0 1080 1080" xml:space="preserve">
<desc>Created with Fabric.js 5.2.4</desc>
<defs>
</defs>
<g transform="matrix(1 0 0 1 540 540)" id="4828f6ee-861f-49a3-b5aa-b3f6aef9b2fb"  >
<rect style="stroke: none; stroke-width: 1; stroke-dasharray: none; stroke-linecap: butt; stroke-dashoffset: 0; stroke-linejoin: miter; stroke-miterlimit: 4; fill: rgb(255,255,255); fill-rule: nonzero; opacity: 1; visibility: hidden;" vector-effect="non-scaling-stroke"  x="-540" y="-540" rx="0" ry="0" width="1080" height="1080" />
</g>
<g transform="matrix(1 0 0 1 540 540)" id="7e2f083e-0136-4d5e-8d20-05eff2d2fa6e"  >
</g>
<g transform="matrix(4.8 0 0 4.8 540 589.09)"  >
<g style=""   >
		<g transform="matrix(0.04 0 0 -0.04 0 -10.7)" id="SvgjsG2388"  >
<linearGradient id="SVGID_SvgjsLinearGradient2392_3" gradientUnits="objectBoundingBox" gradientTransform="matrix(1 0 0 1 0 0)"  x1="0" y1="0" x2="1" y2="0">
<stop offset="0%" style="stop-color:rgb(131,79,42);stop-opacity: 1"/>
<stop offset="50%" style="stop-color:rgb(219,161,115);stop-opacity: 1"/>
<stop offset="100%" style="stop-color:rgb(0,0,0);stop-opacity: 1"/>
</linearGradient>
<path style="stroke: none; stroke-width: 1; stroke-dasharray: none; stroke-linecap: butt; stroke-dashoffset: 0; stroke-linejoin: miter; stroke-miterlimit: 4; fill: url(#SVGID_SvgjsLinearGradient2392_3); fill-rule: nonzero; opacity: 1;" vector-effect="non-scaling-stroke"  transform=" translate(-2978.29, -2946.31)" d="M 2983 5664 C 2838 5643 2730 5614 2629 5569 C 2577 5546 2528 5528 2520 5528 C 2512 5528 2471 5536 2430 5545 C 2321 5570 2102 5561 1963 5526 C 1774 5479 1588 5393 1404 5269 C 947 4961 584 4410 529 3939 C 517 3836 517 3835 473 3790 C 207 3521 109 2981 226 2435 C 315 2018 596 1545 879 1337 C 972 1269 978 1263 989 1215 C 995 1188 1020 1124 1045 1074 C 1184 787 1499 521 1885 365 C 2349 178 2941 161 3328 325 L 3437 370 L 3506 353 C 3611 327 3816 329 3949 359 C 4359 449 4764 720 5045 1095 C 5187 1283 5254 1401 5333 1600 C 5389 1740 5417 1846 5428 1965 C 5437 2054 5438 2055 5485 2104 C 5618 2241 5715 2460 5760 2725 C 5780 2839 5782 2879 5777 3050 C 5770 3334 5734 3513 5635 3766 C 5502 4107 5297 4396 5064 4571 C 5004 4616 4970 4648 4970 4660 C 4970 4693 4924 4806 4879 4886 C 4686 5224 4228 5526 3753 5630 C 3525 5680 3190 5695 2983 5664 z M 3388 5639 C 3799 5594 4223 5399 4491 5131 C 4605 5017 4718 4857 4744 4773 L 4751 4752 L 4688 4772 C 4608 4798 4423 4807 4309 4790 C 4072 4756 3827 4639 3637 4470 C 3565 4405 3470 4262 3429 4156 C 3374 4015 3357 3907 3363 3740 C 3366 3660 3372 3584 3376 3571 L 3383 3547 L 3199 3553 C 3026 3558 2798 3588 2778 3608 C 2774 3612 2788 3649 2809 3690 C 2987 4031 3083 4461 3051 4771 C 3025 5017 2939 5204 2861 5185 C 2808 5172 2778 5146 2759 5097 L 2740 5049 L 2774 4987 C 2855 4842 2896 4643 2886 4445 C 2874 4206 2804 3915 2708 3708 C 2677 3641 2675 3638 2646 3644 C 2604 3653 2469 3712 2402 3752 C 2330 3795 2209 3908 2155 3985 C 2055 4125 2005 4267 1990 4446 C 1971 4694 2026 4950 2144 5151 C 2190 5228 2270 5325 2319 5359 C 2346 5379 2347 5379 2446 5353 C 2518 5335 2563 5329 2612 5332 C 2649 5334 2682 5338 2685 5341 C 2691 5348 2660 5387 2589 5461 L 2543 5510 L 2616 5540 C 2730 5587 2872 5619 3075 5643 C 3142 5651 3297 5649 3388 5639 z M 2262 5394 L 2300 5387 L 2226 5309 C 2170 5249 2139 5204 2097 5123 C 1994 4920 1954 4739 1964 4515 C 1972 4326 1992 4234 2050 4115 C 2151 3910 2300 3765 2522 3657 C 2592 3623 2649 3591 2650 3585 C 2651 3535 2318 3076 2298 3100 C 2296 3103 2267 3145 2235 3194 C 2028 3509 1757 3761 1472 3904 C 1267 4007 1025 4046 990 3981 C 985 3971 978 3944 974 3921 C 968 3884 971 3876 1003 3837 L 1039 3793 L 1142 3787 C 1424 3770 1684 3628 1980 3330 C 2054 3255 2142 3156 2175 3111 L 2234 3027 L 2190 2988 C 2060 2874 1905 2796 1751 2764 C 1639 2742 1447 2749 1342 2779 C 1004 2877 677 3184 581 3494 C 549 3599 550 3604 638 3700 C 685 3752 725 3807 739 3839 C 764 3897 762 3907 732 3891 C 720 3885 694 3880 672 3880 C 650 3880 613 3873 590 3865 C 567 3857 547 3850 546 3850 C 545 3850 547 3880 551 3918 C 572 4113 681 4393 812 4590 C 1076 4985 1548 5307 1962 5375 C 2119 5400 2195 5405 2262 5394 z M 4695 4739 L 4765 4715 L 4798 4606 C 4818 4538 4843 4480 4863 4452 C 4899 4401 4920 4389 4920 4417 C 4920 4428 4930 4456 4941 4480 C 4953 4504 4965 4541 4968 4562 C 4970 4583 4976 4600 4980 4600 C 4994 4600 5116 4501 5166 4449 C 5414 4188 5565 3900 5635 3555 C 5716 3149 5685 2808 5537 2487 C 5503 2413 5443 2320 5430 2320 C 5427 2320 5418 2348 5411 2381 C 5373 2566 5197 2806 4994 2952 C 4908 3013 4757 3092 4640 3136 C 4568 3163 4558 3164 4390 3164 C 4228 3164 4208 3162 4125 3136 C 4009 3101 3872 3033 3781 2964 C 3741 2934 3705 2910 3701 2910 C 3690 2910 3605 3057 3560 3153 C 3518 3244 3445 3448 3451 3454 C 3453 3457 3516 3463 3590 3469 C 3904 3495 4136 3555 4380 3673 C 4578 3769 4747 3903 4835 4033 C 4884 4105 4883 4148 4833 4190 C 4799 4218 4790 4221 4747 4215 C 4680 4207 4679 4206 4635 4133 C 4613 4096 4559 4030 4515 3985 C 4345 3812 4100 3690 3755 3605 C 3662 3582 3431 3547 3422 3555 C 3410 3565 3390 3733 3390 3820 C 3390 4061 3472 4261 3640 4431 C 3801 4594 3995 4696 4248 4751 C 4375 4779 4597 4773 4695 4739 z M 549 3497 C 609 3266 831 3006 1093 2861 C 1301 2746 1475 2707 1673 2730 C 1849 2750 2037 2825 2176 2931 C 2210 2956 2242 2980 2248 2984 C 2261 2992 2336 2872 2391 2755 C 2431 2669 2510 2459 2510 2440 C 2510 2434 2482 2430 2447 2430 C 2352 2430 2140 2403 2012 2374 C 1682 2300 1385 2148 1208 1961 C 1072 1818 1054 1756 1131 1700 C 1165 1676 1174 1674 1212 1681 C 1236 1685 1260 1689 1266 1690 C 1272 1690 1298 1724 1325 1766 C 1465 1988 1727 2157 2090 2260 C 2224 2298 2365 2326 2461 2335 L 2537 2342 L 2551 2274 C 2571 2173 2569 1942 2546 1860 C 2523 1776 2474 1670 2418 1583 C 2284 1377 2013 1209 1710 1144 C 1588 1118 1392 1120 1285 1149 C 1242 1161 1202 1174 1198 1178 C 1194 1182 1176 1232 1159 1290 C 1128 1394 1100 1449 1061 1484 C 1040 1503 1040 1503 1040 1479 C 1040 1465 1035 1449 1029 1443 C 1023 1437 1009 1400 997 1361 L 975 1290 L 895 1354 C 780 1446 639 1610 550 1755 C 438 1937 358 2148 313 2378 C 289 2500 286 2539 286 2735 C 285 2929 288 2969 309 3070 C 333 3191 382 3335 433 3435 C 463 3496 521 3583 527 3577 C 528 3575 539 3539 549 3497 z M 2960 3511 C 3065 3489 3179 3474 3311 3465 L 3397 3458 L 3423 3361 C 3457 3231 3511 3089 3577 2953 L 3632 2842 L 3589 2803 C 3518 2739 3362 2551 3287 2440 C 3244 2375 3211 2335 3201 2336 C 3192 2337 3140 2349 3085 2363 C 2950 2398 2818 2419 2679 2427 L 2562 2433 L 2540 2519 C 2507 2646 2445 2810 2382 2937 L 2327 3049 L 2418 3145 C 2521 3253 2626 3384 2695 3494 L 2742 3568 L 2803 3549 C 2837 3539 2908 3521 2960 3511 z M 4599 3119 C 4698 3094 4878 3005 4976 2932 C 5120 2825 5256 2667 5328 2523 C 5359 2462 5400 2333 5400 2297 C 5400 2286 5367 2243 5326 2201 C 5260 2134 5200 2043 5200 2011 C 5200 1998 5251 2004 5344 2026 C 5376 2034 5405 2038 5408 2035 C 5421 2022 5386 1847 5346 1726 C 5258 1460 5133 1253 4936 1052 C 4594 701 4170 500 3779 500 C 3663 500 3647 508 3690 543 C 3818 651 3941 896 3981 1120 C 3999 1225 3997 1454 3976 1569 C 3938 1785 3806 1991 3617 2131 C 3543 2186 3403 2263 3332 2288 L 3299 2299 L 3315 2331 C 3380 2455 3506 2636 3612 2754 L 3655 2802 L 3716 2709 C 3988 2293 4388 1977 4738 1900 C 4872 1870 4947 1876 4968 1917 C 4973 1927 4980 1954 4983 1977 C 4988 2015 4984 2024 4952 2060 C 4915 2101 4915 2101 4830 2106 C 4633 2116 4431 2195 4237 2336 C 4145 2402 4001 2532 3920 2621 C 3837 2712 3731 2849 3730 2866 C 3730 2877 3826 2957 3903 3009 C 3998 3073 4130 3123 4252 3140 C 4340 3152 4508 3142 4599 3119 z M 2918 2335 C 3023 2322 3180 2294 3186 2287 C 3187 2286 3161 2231 3129 2165 C 3060 2024 2991 1840 2961 1720 C 2886 1414 2882 1107 2950 900 C 3009 725 3054 684 3144 726 C 3171 739 3182 754 3198 795 L 3217 848 L 3184 906 C 3037 1165 3033 1534 3171 1985 C 3199 2074 3263 2232 3280 2253 C 3288 2262 3408 2222 3480 2185 C 3667 2090 3799 1952 3890 1756 C 3954 1618 3965 1560 3965 1350 C 3965 1181 3962 1155 3937 1056 C 3887 856 3801 694 3686 581 L 3621 516 L 3501 544 C 3410 566 3370 571 3331 565 C 3303 561 3278 555 3275 550 C 3270 542 3314 487 3374 427 C 3395 406 3411 387 3409 385 C 3392 370 3268 326 3172 301 C 2998 258 2885 246 2682 253 C 2477 259 2374 278 2171 346 C 1789 473 1485 690 1293 975 C 1248 1041 1204 1127 1211 1134 C 1213 1137 1247 1129 1285 1118 C 1342 1101 1381 1097 1495 1097 C 1750 1098 1944 1160 2169 1311 C 2342 1426 2448 1550 2521 1720 C 2585 1872 2614 2090 2591 2253 C 2585 2297 2582 2336 2586 2341 C 2594 2355 2782 2352 2918 2335 z" stroke-linecap="round" />
</g>
		<g transform="matrix(0.03 0 0 0.03 0.5 120)" id="SvgjsG2389"  >
<path style="stroke: none; stroke-width: 1; stroke-dasharray: none; stroke-linecap: butt; stroke-dashoffset: 0; stroke-linejoin: miter; stroke-miterlimit: 4; fill: rgb(17,17,17); fill-rule: nonzero; opacity: 1;" vector-effect="non-scaling-stroke"  transform=" translate(-144.66, -26.26)" d="M 22.08 17.32 L 14.759999999999998 17.32 L 14.759999999999998 40 L 7.639999999999998 40 L 7.639999999999998 17.32 L 0.2799999999999976 17.32 L 0.2799999999999976 11.760000000000002 L 22.08 11.760000000000002 L 22.08 17.32 z M 41.04 40 L 35 40 L 35 38.12 C 34.56 38.44 34.16 38.72 33.72 39 C 32.96 39.52 31.2 40.56 28.599999999999998 40.56 C 24.839999999999996 40.56 23.119999999999997 38.52 22.439999999999998 37.120000000000005 C 21.999999999999996 36.24 21.759999999999998 35.2 21.759999999999998 34.2 C 21.759999999999998 30.440000000000005 25.119999999999997 28.640000000000004 26.04 28.240000000000002 C 27.599999999999998 27.560000000000002 30.439999999999998 27.000000000000004 34.4 26.28 L 34.4 25.12 C 34.4 24.400000000000002 34.28 22.6 32.04 22.6 C 30.24 22.6 29.4 23.44 29.08 24.12 C 29 24.28 28.88 24.6 28.799999999999997 25.040000000000003 L 22.639999999999997 25.040000000000003 C 22.719999999999995 24.200000000000003 22.759999999999998 22.400000000000002 24.319999999999997 20.840000000000003 C 26.039999999999996 19.160000000000004 28.319999999999997 18.840000000000003 29.039999999999996 18.720000000000002 C 30.239999999999995 18.560000000000002 31.239999999999995 18.560000000000002 31.719999999999995 18.560000000000002 C 34.63999999999999 18.560000000000002 38.599999999999994 19.240000000000002 39.99999999999999 22.240000000000002 C 40.239999999999995 22.8 40.43999999999999 23.360000000000003 40.43999999999999 24.560000000000002 L 40.43999999999999 36.760000000000005 C 40.43999999999999 38.56 40.51999999999999 39.24 41.03999999999999 40.00000000000001 z M 34.4 30 L 30.439999999999998 31.32 C 30.2 31.4 29.959999999999997 31.48 29.72 31.6 C 28.2 32.24 27.799999999999997 33.120000000000005 27.799999999999997 33.92 C 27.799999999999997 34.04 27.839999999999996 34.480000000000004 28.039999999999996 34.88 C 28.279999999999994 35.28 28.879999999999995 36.04 30.159999999999997 36.04 C 31.279999999999998 36.04 32.239999999999995 35.4 32.519999999999996 35.199999999999996 C 34.31999999999999 33.919999999999995 34.4 31.959999999999994 34.4 29.999999999999996 z M 63.2 33.24 C 63.2 34.96 62.56 36.2 62.2 36.72 C 60.36 39.48 56.52 40.56 53.36 40.56 C 52.24 40.56 48.76 40.36 45.72 38.480000000000004 C 44.48 37.720000000000006 43.64 36.88 43.24 36.52 L 47.160000000000004 33 C 47.52 33.36 47.88 33.72 48.28 34 C 49.64 35.08 51.52 35.88 53.24 35.88 C 53.52 35.88 54.080000000000005 35.84 54.760000000000005 35.68 C 55.68000000000001 35.48 56.92 34.96 56.92 33.8 C 56.88 32.36 55.04 32.199999999999996 52.800000000000004 31.839999999999996 C 48.440000000000005 31.119999999999997 46.440000000000005 30.119999999999997 45.36000000000001 28.039999999999996 C 44.800000000000004 26.919999999999995 44.720000000000006 25.919999999999995 44.720000000000006 25.439999999999994 C 44.720000000000006 24.879999999999995 44.84 23.639999999999993 45.60000000000001 22.319999999999993 C 46.56000000000001 20.599999999999994 48.92000000000001 18.439999999999994 53.56000000000001 18.439999999999994 C 54.88000000000001 18.439999999999994 57.96000000000001 18.639999999999993 61.12000000000001 20.439999999999994 C 61.72000000000001 20.799999999999994 62.28000000000001 21.159999999999993 62.84000000000001 21.559999999999995 L 59.04000000000001 25.079999999999995 C 58.680000000000014 24.799999999999994 58.320000000000014 24.519999999999996 57.920000000000016 24.279999999999994 C 56.80000000000002 23.599999999999994 55.12000000000002 22.999999999999993 53.80000000000002 22.999999999999993 C 52.920000000000016 22.999999999999993 52.12000000000002 23.23999999999999 51.84000000000002 23.359999999999992 C 51.08000000000002 23.71999999999999 50.88000000000002 24.23999999999999 50.88000000000002 24.59999999999999 C 50.88000000000002 24.99999999999999 51.12000000000002 25.359999999999992 51.44000000000002 25.59999999999999 C 52.04000000000002 25.99999999999999 53.56000000000002 26.199999999999992 54.240000000000016 26.359999999999992 L 57.000000000000014 26.959999999999994 C 60.320000000000014 27.679999999999993 63.20000000000002 29.359999999999992 63.20000000000002 33.239999999999995 z M 87.96 40 L 80.83999999999999 40 L 75.47999999999999 31 L 72.83999999999999 33.52 L 72.83999999999999 40 L 66.83999999999999 40 L 66.83999999999999 11.760000000000002 L 72.88 11.760000000000002 L 72.88 26.28 L 79.64 19.12 L 87.04 19.12 L 79.84 26.560000000000002 z M 108.88 40 L 101.83999999999999 40 L 101.83999999999999 11.760000000000002 L 108.88 11.760000000000002 L 108.88 40 z M 133.07999999999998 40 L 126.91999999999999 40 L 126.91999999999999 28.2 C 126.91999999999999 26.8 126.87999999999998 25.759999999999998 126.67999999999999 25.2 C 126.39999999999999 24.48 125.63999999999999 23.52 123.88 23.52 C 123.6 23.52 122.56 23.52 121.8 24.16 C 120.75999999999999 24.96 120.64 26.240000000000002 120.64 28.72 L 120.64 40 L 114.48 40 L 114.48 19.16 L 120.72 19.16 L 120.72 20.96 C 120.92 20.76 121.16 20.44 121.67999999999999 20.04 C 122.44 19.48 124.11999999999999 18.599999999999998 126.6 18.599999999999998 C 127.08 18.599999999999998 128.84 18.639999999999997 130.32 19.439999999999998 C 132.88 20.799999999999997 133.07999999999998 23.159999999999997 133.07999999999998 25.72 L 133.07999999999998 40 z M 157.28 40 L 151.68 40 L 151.64000000000001 38.04 C 151.24 38.44 150.92000000000002 38.76 150.44000000000003 39.12 C 148.64000000000001 40.44 146.84000000000003 40.559999999999995 146.00000000000003 40.559999999999995 C 144.60000000000002 40.519999999999996 141.32000000000002 40.12 139.04000000000002 36.879999999999995 C 138.04000000000002 35.44 137.08 33.44 137.08 29.679999999999996 C 137.08 28.479999999999997 137.08 23.039999999999996 141.04000000000002 20.119999999999997 C 141.76000000000002 19.56 143.36 18.56 145.8 18.56 C 148.72 18.56 150.48000000000002 20.04 151.28 20.68 L 151.28 11.76 L 157.28 11.76 L 157.28 40 z M 151.44 29.560000000000002 C 151.44 29.040000000000003 151.56 26.520000000000003 150.4 24.76 C 150.04 24.200000000000003 149 22.96 147.12 23.200000000000003 C 145.96 23.360000000000003 145.04 24.000000000000004 144.4 24.960000000000004 C 143.56 26.200000000000003 143.32 28.080000000000005 143.32 29.560000000000002 C 143.32 29.96 143.28 32.72 144.48 34.480000000000004 C 145.39999999999998 35.84 146.64 36.00000000000001 147.28 36.00000000000001 C 148 36.00000000000001 148.84 35.720000000000006 149.44 35.24000000000001 C 151.56 33.56000000000001 151.44 30.08000000000001 151.44 29.56000000000001 z M 181.36 40 L 175.20000000000002 40 L 175.20000000000002 38.04 C 174.76000000000002 38.519999999999996 174.52 38.76 174.28000000000003 38.96 C 173.52000000000004 39.56 171.68000000000004 40.6 169.12000000000003 40.6 C 168.64000000000004 40.6 166.32000000000002 40.6 164.68000000000004 39.32 C 162.36000000000004 37.48 162.56000000000003 34.12 162.56000000000003 31.560000000000002 L 162.56000000000003 19.120000000000005 L 168.76000000000002 19.120000000000005 L 168.76000000000002 32.120000000000005 C 168.76000000000002 33.440000000000005 168.8 34.440000000000005 169.92000000000002 35.120000000000005 C 170.28000000000003 35.32000000000001 170.8 35.6 171.72000000000003 35.6 C 173.68000000000004 35.6 174.72000000000003 34.480000000000004 175.00000000000003 33.72 C 175.20000000000002 33.199999999999996 175.24000000000004 32.68 175.24000000000004 32.12 L 175.24000000000004 19.119999999999997 L 181.36000000000004 19.119999999999997 L 181.36000000000004 40 z M 204.04 33.24 C 204.04 34.96 203.4 36.2 203.04 36.72 C 201.2 39.48 197.35999999999999 40.56 194.2 40.56 C 193.07999999999998 40.56 189.6 40.36 186.56 38.480000000000004 C 185.32 37.720000000000006 184.48 36.88 184.08 36.52 L 188 33 C 188.36 33.36 188.72 33.72 189.12 34 C 190.48000000000002 35.08 192.36 35.88 194.08 35.88 C 194.36 35.88 194.92000000000002 35.84 195.60000000000002 35.68 C 196.52 35.48 197.76000000000002 34.96 197.76000000000002 33.8 C 197.72000000000003 32.36 195.88000000000002 32.199999999999996 193.64000000000001 31.839999999999996 C 189.28 31.119999999999997 187.28 30.119999999999997 186.20000000000002 28.039999999999996 C 185.64000000000001 26.919999999999995 185.56000000000003 25.919999999999995 185.56000000000003 25.439999999999994 C 185.56000000000003 24.879999999999995 185.68000000000004 23.639999999999993 186.44000000000003 22.319999999999993 C 187.40000000000003 20.599999999999994 189.76000000000002 18.439999999999994 194.40000000000003 18.439999999999994 C 195.72000000000003 18.439999999999994 198.80000000000004 18.639999999999993 201.96000000000004 20.439999999999994 C 202.56000000000003 20.799999999999994 203.12000000000003 21.159999999999993 203.68000000000004 21.559999999999995 L 199.88000000000002 25.079999999999995 C 199.52 24.799999999999994 199.16000000000003 24.519999999999996 198.76000000000002 24.279999999999994 C 197.64000000000001 23.599999999999994 195.96 22.999999999999993 194.64000000000001 22.999999999999993 C 193.76000000000002 22.999999999999993 192.96 23.23999999999999 192.68 23.359999999999992 C 191.92000000000002 23.71999999999999 191.72 24.23999999999999 191.72 24.59999999999999 C 191.72 24.99999999999999 191.96 25.359999999999992 192.28 25.59999999999999 C 192.88 25.99999999999999 194.4 26.199999999999992 195.08 26.359999999999992 L 197.84 26.959999999999994 C 201.16 27.679999999999993 204.04 29.359999999999992 204.04 33.239999999999995 z M 218.64 23.4 L 214.55999999999997 23.4 L 214.55999999999997 32.76 C 214.55999999999997 33.6 214.51999999999998 34.08 214.71999999999997 34.44 C 215.07999999999998 35.12 216.03999999999996 35.12 216.15999999999997 35.12 C 216.87999999999997 35.12 217.59999999999997 35.08 218.31999999999996 35.08 L 218.31999999999996 39.839999999999996 C 217.91999999999996 39.919999999999995 216.47999999999996 40.16 215.07999999999996 40.16 C 214.63999999999996 40.16 214.19999999999996 40.16 213.79999999999995 40.12 C 213.23999999999995 40.08 211.39999999999995 40.12 209.99999999999994 38.839999999999996 C 208.39999999999995 37.44 208.47999999999993 35.31999999999999 208.47999999999993 33.4 L 208.47999999999993 23.36 L 205.43999999999994 23.36 L 205.43999999999994 19.6 L 208.47999999999993 19.6 L 208.47999999999993 13.080000000000002 L 214.55999999999995 13.080000000000002 L 214.55999999999995 19.64 L 218.63999999999996 19.64 L 218.63999999999996 23.4 z M 233.84 24.32 L 231.8 24.64 C 231.60000000000002 24.68 230.64000000000001 24.8 229.88000000000002 25.080000000000002 C 228.24000000000004 25.64 227.96000000000004 26.680000000000003 227.96000000000004 28.240000000000002 L 227.96000000000004 40 L 221.84000000000003 40 L 221.84000000000003 19.12 L 227.80000000000004 19.12 L 227.80000000000004 21.28 C 228.32000000000005 20.84 228.88000000000005 20.28 230.24000000000004 19.720000000000002 C 231.92000000000004 19.040000000000003 233.08000000000004 18.96 233.84000000000003 18.880000000000003 L 233.84000000000003 24.320000000000004 z M 243.04 16.52 L 236.92 16.52 L 236.92 11.76 L 243.04 11.76 L 243.04 16.52 z M 243.04 40 L 236.92 40 L 236.92 19.12 L 243.04 19.12 L 243.04 40 z M 268.32 30.84 L 253.4 30.84 C 253.4 31.04 253.36 31.52 253.48000000000002 32.08 C 253.96 34.519999999999996 255.68 36.04 258.16 36.04 C 258.52000000000004 36.04 259.32000000000005 36 260.16 35.68 C 262.24 34.96 263.16 32.84 263.44 32.32 L 268.08 34.72 C 267.24 35.96 266.8 36.519999999999996 266.32 37.08 C 263.24 40.48 259.24 40.76 257.68 40.76 C 257.04 40.76 255.56 40.72 253.92000000000002 40.199999999999996 C 249.28000000000003 38.76 247.12 34.67999999999999 247.12 29.959999999999994 C 247.12 28.679999999999993 247.20000000000002 24.799999999999994 249.8 21.799999999999994 C 251.08 20.359999999999992 253.28 18.479999999999993 257.84000000000003 18.479999999999993 C 259.24 18.479999999999993 263.40000000000003 18.639999999999993 266.00000000000006 22.279999999999994 C 268.36000000000007 25.519999999999996 268.28000000000003 29.839999999999993 268.32000000000005 30.839999999999996 z M 261.96 27 C 261.88 26.32 261.76 24.2 259.68 23.28 C 258.84000000000003 22.880000000000003 258.16 22.880000000000003 257.8 22.880000000000003 C 255.36 22.880000000000003 254.24 24.680000000000003 253.92000000000002 25.400000000000002 C 253.76000000000002 25.76 253.60000000000002 26.200000000000003 253.44000000000003 27.000000000000004 L 261.96000000000004 27.000000000000004 z M 289.04 33.24 C 289.04 34.96 288.40000000000003 36.2 288.04 36.72 C 286.20000000000005 39.48 282.36 40.56 279.20000000000005 40.56 C 278.08000000000004 40.56 274.6 40.36 271.56000000000006 38.480000000000004 C 270.32000000000005 37.720000000000006 269.4800000000001 36.88 269.08000000000004 36.52 L 273.00000000000006 33 C 273.36000000000007 33.36 273.7200000000001 33.72 274.12000000000006 34 C 275.4800000000001 35.08 277.36000000000007 35.88 279.08000000000004 35.88 C 279.36 35.88 279.92 35.84 280.6 35.68 C 281.52000000000004 35.48 282.76000000000005 34.96 282.76000000000005 33.8 C 282.72 32.36 280.88000000000005 32.199999999999996 278.64000000000004 31.839999999999996 C 274.28000000000003 31.119999999999997 272.28000000000003 30.119999999999997 271.20000000000005 28.039999999999996 C 270.64000000000004 26.919999999999995 270.56000000000006 25.919999999999995 270.56000000000006 25.439999999999994 C 270.56000000000006 24.879999999999995 270.68000000000006 23.639999999999993 271.44000000000005 22.319999999999993 C 272.40000000000003 20.599999999999994 274.76000000000005 18.439999999999994 279.40000000000003 18.439999999999994 C 280.72 18.439999999999994 283.8 18.639999999999993 286.96000000000004 20.439999999999994 C 287.56000000000006 20.799999999999994 288.12000000000006 21.159999999999993 288.68000000000006 21.559999999999995 L 284.88000000000005 25.079999999999995 C 284.52000000000004 24.799999999999994 284.16 24.519999999999996 283.76000000000005 24.279999999999994 C 282.64000000000004 23.599999999999994 280.96000000000004 22.999999999999993 279.64000000000004 22.999999999999993 C 278.76000000000005 22.999999999999993 277.96000000000004 23.23999999999999 277.68000000000006 23.359999999999992 C 276.9200000000001 23.71999999999999 276.7200000000001 24.23999999999999 276.7200000000001 24.59999999999999 C 276.7200000000001 24.99999999999999 276.9600000000001 25.359999999999992 277.2800000000001 25.59999999999999 C 277.8800000000001 25.99999999999999 279.4000000000001 26.199999999999992 280.0800000000001 26.359999999999992 L 282.8400000000001 26.959999999999994 C 286.1600000000001 27.679999999999993 289.0400000000001 29.359999999999992 289.0400000000001 33.239999999999995 z" stroke-linecap="round" />
</g>
</g>
</g>
</svg>