<?xml version="1.0" encoding="UTF-8" standalone="no" ?>
<!DOCTYPE svg PUBLIC "-//W3C//DTD SVG 1.1//EN" "http://www.w3.org/Graphics/SVG/1.1/DTD/svg11.dtd">
<svg xmlns="http://www.w3.org/2000/svg" xmlns:xlink="http://www.w3.org/1999/xlink" version="1.1" width="1200" height="628" viewBox="0 0 1200 628" xml:space="preserve">
<desc>Created with Fabric.js 5.2.4</desc>
<defs>
</defs>
<g transform="matrix(1 0 0 1 600 314)" id="546945c5-b7ec-4699-890d-8f5f61c730eb"  >
<rect style="stroke: none; stroke-width: 1; stroke-dasharray: none; stroke-linecap: butt; stroke-dashoffset: 0; stroke-linejoin: miter; stroke-miterlimit: 4; fill: rgb(255,255,255); fill-rule: nonzero; opacity: 1; visibility: hidden;" vector-effect="non-scaling-stroke"  x="-600" y="-314" rx="0" ry="0" width="1200" height="628" />
</g>
<g transform="matrix(Infinity NaN NaN Infinity 0 0)" id="141bc01e-871f-4c2b-893b-f31f662a21b4"  >
</g>
<g transform="matrix(3.0 0 0 3.0 600 314)"  >
<g style=""   >
		<g transform="matrix(0.02 0 0 -0.02 -125.27 0)" id="SvgjsG5557"  >
<linearGradient id="SVGID_SvgjsLinearGradient5563_3" gradientUnits="objectBoundingBox" gradientTransform="matrix(1 0 0 1 0 0)"  x1="0" y1="0" x2="1" y2="0">
<stop offset="0%" style="stop-color:rgb(131,79,42);stop-opacity: 1"/>
<stop offset="50%" style="stop-color:rgb(219,161,115);stop-opacity: 1"/>
<stop offset="100%" style="stop-color:rgb(0,0,0);stop-opacity: 1"/>
</linearGradient>
<path style="stroke: none; stroke-width: 1; stroke-dasharray: none; stroke-linecap: butt; stroke-dashoffset: 0; stroke-linejoin: miter; stroke-miterlimit: 4; fill: url(#SVGID_SvgjsLinearGradient5563_3); fill-rule: nonzero; opacity: 1;" vector-effect="non-scaling-stroke"  transform=" translate(-2978.29, -2946.31)" d="M 2983 5664 C 2838 5643 2730 5614 2629 5569 C 2577 5546 2528 5528 2520 5528 C 2512 5528 2471 5536 2430 5545 C 2321 5570 2102 5561 1963 5526 C 1774 5479 1588 5393 1404 5269 C 947 4961 584 4410 529 3939 C 517 3836 517 3835 473 3790 C 207 3521 109 2981 226 2435 C 315 2018 596 1545 879 1337 C 972 1269 978 1263 989 1215 C 995 1188 1020 1124 1045 1074 C 1184 787 1499 521 1885 365 C 2349 178 2941 161 3328 325 L 3437 370 L 3506 353 C 3611 327 3816 329 3949 359 C 4359 449 4764 720 5045 1095 C 5187 1283 5254 1401 5333 1600 C 5389 1740 5417 1846 5428 1965 C 5437 2054 5438 2055 5485 2104 C 5618 2241 5715 2460 5760 2725 C 5780 2839 5782 2879 5777 3050 C 5770 3334 5734 3513 5635 3766 C 5502 4107 5297 4396 5064 4571 C 5004 4616 4970 4648 4970 4660 C 4970 4693 4924 4806 4879 4886 C 4686 5224 4228 5526 3753 5630 C 3525 5680 3190 5695 2983 5664 z M 3388 5639 C 3799 5594 4223 5399 4491 5131 C 4605 5017 4718 4857 4744 4773 L 4751 4752 L 4688 4772 C 4608 4798 4423 4807 4309 4790 C 4072 4756 3827 4639 3637 4470 C 3565 4405 3470 4262 3429 4156 C 3374 4015 3357 3907 3363 3740 C 3366 3660 3372 3584 3376 3571 L 3383 3547 L 3199 3553 C 3026 3558 2798 3588 2778 3608 C 2774 3612 2788 3649 2809 3690 C 2987 4031 3083 4461 3051 4771 C 3025 5017 2939 5204 2861 5185 C 2808 5172 2778 5146 2759 5097 L 2740 5049 L 2774 4987 C 2855 4842 2896 4643 2886 4445 C 2874 4206 2804 3915 2708 3708 C 2677 3641 2675 3638 2646 3644 C 2604 3653 2469 3712 2402 3752 C 2330 3795 2209 3908 2155 3985 C 2055 4125 2005 4267 1990 4446 C 1971 4694 2026 4950 2144 5151 C 2190 5228 2270 5325 2319 5359 C 2346 5379 2347 5379 2446 5353 C 2518 5335 2563 5329 2612 5332 C 2649 5334 2682 5338 2685 5341 C 2691 5348 2660 5387 2589 5461 L 2543 5510 L 2616 5540 C 2730 5587 2872 5619 3075 5643 C 3142 5651 3297 5649 3388 5639 z M 2262 5394 L 2300 5387 L 2226 5309 C 2170 5249 2139 5204 2097 5123 C 1994 4920 1954 4739 1964 4515 C 1972 4326 1992 4234 2050 4115 C 2151 3910 2300 3765 2522 3657 C 2592 3623 2649 3591 2650 3585 C 2651 3535 2318 3076 2298 3100 C 2296 3103 2267 3145 2235 3194 C 2028 3509 1757 3761 1472 3904 C 1267 4007 1025 4046 990 3981 C 985 3971 978 3944 974 3921 C 968 3884 971 3876 1003 3837 L 1039 3793 L 1142 3787 C 1424 3770 1684 3628 1980 3330 C 2054 3255 2142 3156 2175 3111 L 2234 3027 L 2190 2988 C 2060 2874 1905 2796 1751 2764 C 1639 2742 1447 2749 1342 2779 C 1004 2877 677 3184 581 3494 C 549 3599 550 3604 638 3700 C 685 3752 725 3807 739 3839 C 764 3897 762 3907 732 3891 C 720 3885 694 3880 672 3880 C 650 3880 613 3873 590 3865 C 567 3857 547 3850 546 3850 C 545 3850 547 3880 551 3918 C 572 4113 681 4393 812 4590 C 1076 4985 1548 5307 1962 5375 C 2119 5400 2195 5405 2262 5394 z M 4695 4739 L 4765 4715 L 4798 4606 C 4818 4538 4843 4480 4863 4452 C 4899 4401 4920 4389 4920 4417 C 4920 4428 4930 4456 4941 4480 C 4953 4504 4965 4541 4968 4562 C 4970 4583 4976 4600 4980 4600 C 4994 4600 5116 4501 5166 4449 C 5414 4188 5565 3900 5635 3555 C 5716 3149 5685 2808 5537 2487 C 5503 2413 5443 2320 5430 2320 C 5427 2320 5418 2348 5411 2381 C 5373 2566 5197 2806 4994 2952 C 4908 3013 4757 3092 4640 3136 C 4568 3163 4558 3164 4390 3164 C 4228 3164 4208 3162 4125 3136 C 4009 3101 3872 3033 3781 2964 C 3741 2934 3705 2910 3701 2910 C 3690 2910 3605 3057 3560 3153 C 3518 3244 3445 3448 3451 3454 C 3453 3457 3516 3463 3590 3469 C 3904 3495 4136 3555 4380 3673 C 4578 3769 4747 3903 4835 4033 C 4884 4105 4883 4148 4833 4190 C 4799 4218 4790 4221 4747 4215 C 4680 4207 4679 4206 4635 4133 C 4613 4096 4559 4030 4515 3985 C 4345 3812 4100 3690 3755 3605 C 3662 3582 3431 3547 3422 3555 C 3410 3565 3390 3733 3390 3820 C 3390 4061 3472 4261 3640 4431 C 3801 4594 3995 4696 4248 4751 C 4375 4779 4597 4773 4695 4739 z M 549 3497 C 609 3266 831 3006 1093 2861 C 1301 2746 1475 2707 1673 2730 C 1849 2750 2037 2825 2176 2931 C 2210 2956 2242 2980 2248 2984 C 2261 2992 2336 2872 2391 2755 C 2431 2669 2510 2459 2510 2440 C 2510 2434 2482 2430 2447 2430 C 2352 2430 2140 2403 2012 2374 C 1682 2300 1385 2148 1208 1961 C 1072 1818 1054 1756 1131 1700 C 1165 1676 1174 1674 1212 1681 C 1236 1685 1260 1689 1266 1690 C 1272 1690 1298 1724 1325 1766 C 1465 1988 1727 2157 2090 2260 C 2224 2298 2365 2326 2461 2335 L 2537 2342 L 2551 2274 C 2571 2173 2569 1942 2546 1860 C 2523 1776 2474 1670 2418 1583 C 2284 1377 2013 1209 1710 1144 C 1588 1118 1392 1120 1285 1149 C 1242 1161 1202 1174 1198 1178 C 1194 1182 1176 1232 1159 1290 C 1128 1394 1100 1449 1061 1484 C 1040 1503 1040 1503 1040 1479 C 1040 1465 1035 1449 1029 1443 C 1023 1437 1009 1400 997 1361 L 975 1290 L 895 1354 C 780 1446 639 1610 550 1755 C 438 1937 358 2148 313 2378 C 289 2500 286 2539 286 2735 C 285 2929 288 2969 309 3070 C 333 3191 382 3335 433 3435 C 463 3496 521 3583 527 3577 C 528 3575 539 3539 549 3497 z M 2960 3511 C 3065 3489 3179 3474 3311 3465 L 3397 3458 L 3423 3361 C 3457 3231 3511 3089 3577 2953 L 3632 2842 L 3589 2803 C 3518 2739 3362 2551 3287 2440 C 3244 2375 3211 2335 3201 2336 C 3192 2337 3140 2349 3085 2363 C 2950 2398 2818 2419 2679 2427 L 2562 2433 L 2540 2519 C 2507 2646 2445 2810 2382 2937 L 2327 3049 L 2418 3145 C 2521 3253 2626 3384 2695 3494 L 2742 3568 L 2803 3549 C 2837 3539 2908 3521 2960 3511 z M 4599 3119 C 4698 3094 4878 3005 4976 2932 C 5120 2825 5256 2667 5328 2523 C 5359 2462 5400 2333 5400 2297 C 5400 2286 5367 2243 5326 2201 C 5260 2134 5200 2043 5200 2011 C 5200 1998 5251 2004 5344 2026 C 5376 2034 5405 2038 5408 2035 C 5421 2022 5386 1847 5346 1726 C 5258 1460 5133 1253 4936 1052 C 4594 701 4170 500 3779 500 C 3663 500 3647 508 3690 543 C 3818 651 3941 896 3981 1120 C 3999 1225 3997 1454 3976 1569 C 3938 1785 3806 1991 3617 2131 C 3543 2186 3403 2263 3332 2288 L 3299 2299 L 3315 2331 C 3380 2455 3506 2636 3612 2754 L 3655 2802 L 3716 2709 C 3988 2293 4388 1977 4738 1900 C 4872 1870 4947 1876 4968 1917 C 4973 1927 4980 1954 4983 1977 C 4988 2015 4984 2024 4952 2060 C 4915 2101 4915 2101 4830 2106 C 4633 2116 4431 2195 4237 2336 C 4145 2402 4001 2532 3920 2621 C 3837 2712 3731 2849 3730 2866 C 3730 2877 3826 2957 3903 3009 C 3998 3073 4130 3123 4252 3140 C 4340 3152 4508 3142 4599 3119 z M 2918 2335 C 3023 2322 3180 2294 3186 2287 C 3187 2286 3161 2231 3129 2165 C 3060 2024 2991 1840 2961 1720 C 2886 1414 2882 1107 2950 900 C 3009 725 3054 684 3144 726 C 3171 739 3182 754 3198 795 L 3217 848 L 3184 906 C 3037 1165 3033 1534 3171 1985 C 3199 2074 3263 2232 3280 2253 C 3288 2262 3408 2222 3480 2185 C 3667 2090 3799 1952 3890 1756 C 3954 1618 3965 1560 3965 1350 C 3965 1181 3962 1155 3937 1056 C 3887 856 3801 694 3686 581 L 3621 516 L 3501 544 C 3410 566 3370 571 3331 565 C 3303 561 3278 555 3275 550 C 3270 542 3314 487 3374 427 C 3395 406 3411 387 3409 385 C 3392 370 3268 326 3172 301 C 2998 258 2885 246 2682 253 C 2477 259 2374 278 2171 346 C 1789 473 1485 690 1293 975 C 1248 1041 1204 1127 1211 1134 C 1213 1137 1247 1129 1285 1118 C 1342 1101 1381 1097 1495 1097 C 1750 1098 1944 1160 2169 1311 C 2342 1426 2448 1550 2521 1720 C 2585 1872 2614 2090 2591 2253 C 2585 2297 2582 2336 2586 2341 C 2594 2355 2782 2352 2918 2335 z" stroke-linecap="round" />
</g>
		<g transform="matrix(2.18 0 0 2.18 69.5 -18.63)" id="SvgjsG5558"  >
<linearGradient id="SVGID_SvgjsLinearGradient5567_4" gradientUnits="objectBoundingBox" gradientTransform="matrix(1 0 0 1 0 0)"  x1="0" y1="0" x2="1" y2="0">
<stop offset="0%" style="stop-color:rgb(131,79,42);stop-opacity: 1"/>
<stop offset="50%" style="stop-color:rgb(219,161,115);stop-opacity: 1"/>
<stop offset="100%" style="stop-color:rgb(0,0,0);stop-opacity: 1"/>
</linearGradient>
<path style="stroke: none; stroke-width: 1; stroke-dasharray: none; stroke-linecap: butt; stroke-dashoffset: 0; stroke-linejoin: miter; stroke-miterlimit: 4; fill: url(#SVGID_SvgjsLinearGradient5567_4); fill-rule: nonzero; opacity: 1;" vector-effect="non-scaling-stroke"  transform=" translate(-53.82, -26)" d="M 9.68 17.2 L 19.240000000000002 17.2 L 19.240000000000002 13.399999999999999 L 2.240000000000002 13.399999999999999 L 2.240000000000002 14.639999999999999 L 17.880000000000003 14.639999999999999 L 17.880000000000003 16.08 L 0.8000000000000043 16.08 L 0.8000000000000043 11.959999999999997 L 20.680000000000003 11.959999999999997 L 20.680000000000003 18.639999999999997 L 11.120000000000003 18.639999999999997 L 11.120000000000003 37.36 L 9.680000000000003 37.36 L 9.680000000000003 17.2 z M 7 18.64 L 0.7999999999999998 18.64 L 0.7999999999999998 17.2 L 8.44 17.2 L 8.44 38.519999999999996 L 12.44 38.519999999999996 L 12.44 19.879999999999995 L 13.879999999999999 19.879999999999995 L 13.879999999999999 40 L 6.999999999999999 40 L 6.999999999999999 18.64 z M 29.865 37.52 L 31.625 37.52 L 33.025 34.160000000000004 L 43.464999999999996 34.2 L 46.025 40 L 53.385 39.96 L 40.785 12 L 38.224999999999994 12 L 25.704999999999995 39.96 L 33.504999999999995 39.96 L 34.864999999999995 36.76 L 42.824999999999996 36.76 L 42.224999999999994 35.4 L 33.98499999999999 35.4 L 32.70499999999999 38.56 L 27.944999999999993 38.56 L 39.02499999999999 13.360000000000003 L 39.98499999999999 13.360000000000003 L 51.10499999999999 38.56 L 46.86499999999999 38.56 L 44.304999999999986 32.84 L 31.904999999999987 32.84 z M 34.625 30.48 L 39.505 18.84 L 47.705 37.480000000000004 L 49.345 37.480000000000004 L 39.504999999999995 15.560000000000002 L 32.30499999999999 31.720000000000002 L 43.904999999999994 31.720000000000002 L 39.504999999999995 22 L 36.464999999999996 29.32 L 38.025 29.32 L 39.504999999999995 25.68 L 41.785 30.48 L 34.625 30.48 z M 63.41 33.4 C 65.36999999999999 34.28 67.09 34.72 68.53 34.72 C 69.25 34.72 69.69 34.68 69.89 34.56 C 70.81 34.32 71.45 33.800000000000004 71.85 33 L 71.89 32.92 C 72.09 32.56 72.17 32.120000000000005 72.17 31.560000000000002 C 72.17 31.28 72.09 30.96 71.93 30.560000000000002 L 71.85000000000001 30.400000000000002 C 71.33000000000001 29.32 70.17 28.6 68.05000000000001 27.92 L 67.65 27.8 L 67.53 27.76 C 64.29 26.8 62.21 25.28 61.21 23.160000000000004 C 60.81 22.360000000000003 60.61 21.480000000000004 60.61 20.520000000000003 C 60.61 19.520000000000003 60.81 18.560000000000002 61.21 17.560000000000002 L 61.29 17.400000000000002 C 62.21 15.560000000000002 63.69 14.360000000000003 65.65 13.760000000000002 C 67.05000000000001 13.560000000000002 67.85000000000001 13.440000000000001 68.05000000000001 13.440000000000001 C 70.77000000000001 13.440000000000001 73.93 14.560000000000002 77.49000000000001 16.76 L 78.25000000000001 15.520000000000001 C 74.37000000000002 13.160000000000002 71.01000000000002 12.000000000000002 68.09000000000002 12.000000000000002 C 66.93000000000002 12.000000000000002 65.97000000000001 12.120000000000001 65.29000000000002 12.400000000000002 C 62.93000000000002 13.040000000000003 61.17000000000002 14.480000000000002 60.01000000000002 16.76 L 59.89000000000002 17.040000000000003 C 59.410000000000025 18.200000000000003 59.17000000000002 19.360000000000003 59.17000000000002 20.520000000000003 C 59.17000000000002 21.76 59.410000000000025 22.840000000000003 59.89000000000002 23.800000000000004 C 61.130000000000024 26.280000000000005 63.53000000000002 28.040000000000006 67.13000000000002 29.120000000000005 L 67.61000000000003 29.280000000000005 C 69.25000000000003 29.800000000000004 70.21000000000002 30.360000000000007 70.57000000000002 31.000000000000004 L 70.61000000000003 31.080000000000002 C 70.69000000000003 31.200000000000003 70.73000000000003 31.360000000000003 70.73000000000003 31.560000000000002 C 70.73000000000003 31.92 70.69000000000003 32.160000000000004 70.57000000000004 32.36 C 70.29000000000003 33 69.61000000000004 33.32 68.53000000000003 33.32 C 66.81000000000003 33.32 64.33000000000003 32.44 62.41000000000003 31.2 L 61.81000000000003 30.84 L 58.29000000000003 36.519999999999996 L 58.89000000000003 36.879999999999995 C 61.73000000000003 38.8 65.49000000000002 39.99999999999999 68.53000000000003 39.99999999999999 C 69.53000000000003 39.99999999999999 70.45000000000003 39.879999999999995 71.29000000000003 39.63999999999999 C 73.65000000000003 38.959999999999994 75.41000000000004 37.47999999999999 76.57000000000004 35.239999999999995 L 76.73000000000003 34.959999999999994 C 77.21000000000004 33.71999999999999 77.45000000000003 32.559999999999995 77.45000000000003 31.479999999999993 C 77.45000000000003 30.519999999999992 77.13000000000004 29.319999999999993 76.53000000000003 27.839999999999993 C 75.45000000000003 25.679999999999993 73.17000000000003 24.039999999999992 69.61000000000003 22.919999999999995 L 69.05000000000003 22.759999999999994 C 67.93000000000002 22.399999999999995 67.17000000000003 22.039999999999996 66.81000000000003 21.759999999999994 C 66.33000000000003 21.359999999999996 66.05000000000003 21.079999999999995 65.93000000000004 20.919999999999995 L 65.85000000000004 20.479999999999993 C 65.85000000000004 20.079999999999995 65.93000000000004 19.71999999999999 66.13000000000004 19.439999999999994 C 66.45000000000003 18.839999999999993 66.77000000000004 18.679999999999993 68.05000000000004 18.679999999999993 C 69.77000000000004 18.679999999999993 72.25000000000004 19.55999999999999 74.17000000000004 20.799999999999994 L 74.77000000000004 21.159999999999993 L 76.93000000000004 17.71999999999999 L 76.29000000000003 17.359999999999992 C 73.85000000000004 15.759999999999993 70.53000000000003 14.639999999999992 68.09000000000003 14.639999999999992 C 67.01000000000003 14.639999999999992 66.33000000000003 14.719999999999992 65.97000000000003 14.919999999999991 C 64.33000000000003 15.399999999999991 63.090000000000025 16.43999999999999 62.29000000000003 17.999999999999993 C 61.93000000000003 18.679999999999993 61.770000000000024 19.479999999999993 61.770000000000024 20.479999999999993 C 61.770000000000024 21.239999999999995 61.93000000000002 21.959999999999994 62.25000000000002 22.639999999999993 C 63.090000000000025 24.439999999999994 64.97000000000003 25.759999999999994 67.89000000000001 26.639999999999993 L 68.41000000000001 26.799999999999994 L 69.49000000000001 27.199999999999992 C 70.09 27.43999999999999 70.73 27.75999999999999 71.45 28.159999999999993 C 72.73 28.919999999999995 73.37 29.999999999999993 73.37 31.439999999999994 C 73.37 32.239999999999995 73.17 32.99999999999999 72.81 33.67999999999999 C 71.97 35.15999999999999 70.53 35.919999999999995 68.53 35.919999999999995 C 67.17 35.919999999999995 65.25 35.39999999999999 62.77 34.39999999999999 L 62.09 35.55999999999999 L 62.050000000000004 35.639999999999986 C 64.33 36.79999999999998 66.49000000000001 37.359999999999985 68.57000000000001 37.359999999999985 C 69.73 37.359999999999985 70.81 37.11999999999998 71.77000000000001 36.639999999999986 C 73.65 35.719999999999985 74.81000000000002 33.79999999999998 74.81000000000002 31.399999999999984 C 74.81000000000002 27.599999999999984 71.89000000000001 26.479999999999983 68.81000000000002 25.399999999999984 L 68.29000000000002 25.239999999999984 C 65.77000000000002 24.479999999999983 64.21000000000002 23.439999999999984 63.57000000000002 22.039999999999985 C 63.33000000000002 21.559999999999985 63.21000000000002 21.039999999999985 63.21000000000002 20.439999999999984 C 63.21000000000002 19.679999999999982 63.33000000000002 19.079999999999984 63.61000000000002 18.559999999999985 C 64.25000000000001 17.399999999999984 65.17000000000002 16.639999999999986 66.37000000000002 16.279999999999983 L 67.97000000000001 16.079999999999984 C 70.09000000000002 16.079999999999984 72.41000000000001 16.799999999999983 74.93 18.199999999999985 L 74.29 19.199999999999985 C 71.69000000000001 17.919999999999984 69.61000000000001 17.279999999999987 68.09 17.279999999999987 C 67.33 17.279999999999987 66.89 17.319999999999986 66.69 17.439999999999987 C 65.81 17.679999999999986 65.17 18.19999999999999 64.73 19.03999999999999 L 64.69 19.119999999999987 C 64.49 19.479999999999986 64.41 19.959999999999987 64.41 20.559999999999988 C 64.41 20.99999999999999 64.49 21.31999999999999 64.61 21.51999999999999 C 65.13 22.599999999999987 66.49 23.47999999999999 68.65 24.11999999999999 L 69.17 24.27999999999999 L 70.17 24.59999999999999 C 70.29 24.63999999999999 70.93 24.91999999999999 72.09 25.47999999999999 C 73.65 26.35999999999999 74.77000000000001 27.47999999999999 75.41 28.79999999999999 C 75.81 29.59999999999999 76.00999999999999 30.47999999999999 76.00999999999999 31.43999999999999 C 76.00999999999999 32.59999999999999 75.80999999999999 33.599999999999994 75.36999999999999 34.43999999999999 L 75.28999999999999 34.59999999999999 C 74.36999999999999 36.43999999999999 72.88999999999999 37.639999999999986 70.92999999999999 38.23999999999999 C 69.52999999999999 38.43999999999999 68.72999999999999 38.55999999999999 68.52999999999999 38.55999999999999 C 66.48999999999998 38.55999999999999 63.84999999999999 37.79999999999999 61.40999999999999 36.639999999999986 L 60.28999999999999 36.039999999999985 L 62.28999999999999 32.79999999999998 z M 84.79499999999999 38.6 L 84.79499999999999 12 L 83.35499999999999 12 L 83.35499999999999 40.04 L 90.35499999999999 40 L 90.35499999999999 28.560000000000002 L 101.315 14.680000000000001 L 99.475 14.680000000000001 L 88.875 28.04 L 88.875 38.6 L 84.795 38.6 z M 88.835 21.28 L 90.315 19.44 L 90.315 12 L 86.075 12 L 86.075 24.84 L 87.515 23 L 87.515 13.48 L 88.835 13.48 L 88.835 21.28 z M 106.79499999999999 12 L 97.95499999999998 12 L 86.07499999999999 27.240000000000002 L 86.07499999999999 37.56 L 87.51499999999999 37.56 L 87.51499999999999 27.720000000000002 L 98.63499999999999 13.480000000000002 L 103.835 13.480000000000002 L 92.55499999999999 27.840000000000003 L 99.755 37.56 L 101.55499999999999 37.56 L 94.395 27.840000000000003 z M 103.95499999999998 38.6 L 98.87499999999999 38.6 L 91.71499999999999 28.92 L 91.71499999999999 31.32 L 98.15499999999999 40 L 106.83499999999998 40 L 97.03499999999998 26.84 L 96.11499999999998 28 z" stroke-linecap="round" />
</g>
		<g transform="matrix(0.98 0 0 0.98 69.5 35.52)" id="SvgjsG5559"  >
<linearGradient id="SVGID_SvgjsLinearGradient5571_5" gradientUnits="objectBoundingBox" gradientTransform="matrix(1 0 0 1 0 0)"  x1="0" y1="0" x2="1" y2="0">
<stop offset="0%" style="stop-color:rgb(131,79,42);stop-opacity: 1"/>
<stop offset="50%" style="stop-color:rgb(219,161,115);stop-opacity: 1"/>
<stop offset="100%" style="stop-color:rgb(0,0,0);stop-opacity: 1"/>
</linearGradient>
<path style="stroke: none; stroke-width: 1; stroke-dasharray: none; stroke-linecap: butt; stroke-dashoffset: 0; stroke-linejoin: miter; stroke-miterlimit: 4; fill: url(#SVGID_SvgjsLinearGradient5571_5); fill-rule: nonzero; opacity: 1;" vector-effect="non-scaling-stroke"  transform=" translate(-121.23, -25.98)" d="M 3.2 12 L 7.4 12 L 7.4 37.32 L 5.960000000000001 37.32 L 5.960000000000001 13.440000000000001 L 4.640000000000001 13.440000000000001 L 4.640000000000001 38.56 L 8.68 38.56 L 8.68 12.000000000000004 L 10.12 12.000000000000004 L 10.12 40 L 3.1999999999999993 40 L 3.1999999999999993 12 z M 36.144999999999996 28.6 L 19.784999999999997 12 L 17.784999999999997 12 L 37.584999999999994 32.120000000000005 L 37.584999999999994 14.800000000000004 L 36.144999999999996 14.800000000000004 L 36.144999999999996 28.600000000000005 z M 34.825 25.4 L 34.825 13.399999999999999 L 38.905 13.399999999999999 L 38.905 38.56 L 38.225 38.56 L 38.065000000000005 38.400000000000006 L 19.745000000000005 19.840000000000007 L 19.745000000000005 40.00000000000001 L 23.945000000000004 40.00000000000001 L 23.945000000000004 28.200000000000006 L 22.465000000000003 26.680000000000007 L 22.465000000000003 38.56000000000001 L 21.185000000000002 38.56000000000001 L 21.185000000000002 23.36000000000001 L 37.785000000000004 40.000000000000014 L 40.345000000000006 40.000000000000014 L 40.345000000000006 12.000000000000014 L 33.385000000000005 12.000000000000014 L 33.385000000000005 23.840000000000014 z M 18.425 40 L 18.425 16.6 L 37.585 36.040000000000006 L 37.585 33.92000000000001 L 17.025000000000002 13.160000000000007 L 17.025000000000002 40.00000000000001 L 18.425 40.00000000000001 z M 65.69 16.04 C 63.29 13.52 60.209999999999994 12.04 57.209999999999994 12.04 L 45.489999999999995 12.04 L 45.489999999999995 13.479999999999999 L 57.209999999999994 13.519999999999998 C 59.089999999999996 13.519999999999998 60.88999999999999 14.119999999999997 62.60999999999999 15.279999999999998 C 65.97 17.639999999999997 68.21 21.879999999999995 68.21 26 C 68.21 28.16 67.72999999999999 30.16 66.72999999999999 32.04 C 64.72999999999999 35.76 60.68999999999999 38.48 57.209999999999994 38.48 L 46.92999999999999 38.48 L 46.92999999999999 16.039999999999996 L 56.88999999999999 16.079999999999995 C 58.32999999999999 16.079999999999995 59.72999999999999 16.519999999999996 61.05 17.439999999999994 C 63.73 19.239999999999995 65.49 22.679999999999993 65.49 25.999999999999993 C 65.49 28.439999999999994 64.44999999999999 30.959999999999994 62.56999999999999 32.919999999999995 C 60.809999999999995 34.67999999999999 58.68999999999999 35.8 56.92999999999999 35.8 L 52.36999999999999 35.8 L 52.40999999999999 19.999999999999996 L 51.00999999999999 19.999999999999996 L 50.96999999999999 36.519999999999996 L 50.96999999999999 37.239999999999995 L 56.92999999999999 37.239999999999995 C 59.129999999999995 37.239999999999995 61.68999999999999 35.99999999999999 63.64999999999999 33.919999999999995 C 65.77 31.639999999999993 66.92999999999999 28.839999999999996 66.92999999999999 25.999999999999993 C 66.92999999999999 23.119999999999994 65.80999999999999 20.239999999999995 63.769999999999996 17.999999999999993 C 61.56999999999999 15.799999999999994 59.169999999999995 14.599999999999993 56.88999999999999 14.599999999999993 L 45.489999999999995 14.599999999999993 L 45.489999999999995 39.959999999999994 L 57.209999999999994 39.959999999999994 C 60.089999999999996 39.959999999999994 63.209999999999994 38.48 65.57 35.959999999999994 C 68.16999999999999 33.279999999999994 69.61 29.71999999999999 69.61 25.999999999999993 C 69.61 22.279999999999994 68.25 18.75999999999999 65.69 16.039999999999992 z M 56.769999999999996 34.519999999999996 C 57.88999999999999 34.519999999999996 59.05 34.08 60.29 33.239999999999995 C 62.73 31.519999999999996 64.28999999999999 28.639999999999993 64.28999999999999 25.959999999999994 C 64.28999999999999 24.519999999999992 63.92999999999999 23.119999999999994 63.24999999999999 21.759999999999994 C 61.849999999999994 19.079999999999995 59.32999999999999 17.399999999999995 56.769999999999996 17.399999999999995 L 48.169999999999995 17.439999999999994 L 48.209999999999994 37.31999999999999 L 49.64999999999999 37.31999999999999 L 49.64999999999999 18.839999999999993 L 56.76999999999999 18.799999999999994 C 57.68999999999999 18.799999999999994 58.64999999999999 19.159999999999993 59.64999999999999 19.839999999999993 C 61.68999999999999 21.279999999999994 62.849999999999994 23.519999999999992 62.849999999999994 25.959999999999994 C 62.849999999999994 27.599999999999994 62.089999999999996 29.439999999999994 60.849999999999994 30.839999999999993 C 59.60999999999999 32.239999999999995 58.089999999999996 33.07999999999999 56.769999999999996 33.07999999999999 L 53.92999999999999 33.07999999999999 L 53.92999999999999 34.51999999999999 L 56.769999999999996 34.51999999999999 z M 87.43499999999999 40 C 83.55499999999999 40 80.59499999999998 39 78.63499999999999 37 C 76.71499999999999 35.08 75.71499999999999 32.24 75.71499999999999 28.880000000000003 L 75.71499999999999 12.040000000000003 L 82.51499999999999 12.040000000000003 L 82.51499999999999 28.880000000000003 C 82.51499999999999 31.92 83.99499999999999 33.2 87.23499999999999 33.2 C 90.39499999999998 33.2 92.11499999999998 31.640000000000004 92.11499999999998 28.880000000000003 L 92.11499999999998 12.040000000000003 L 96.23499999999999 12.040000000000003 L 96.23499999999999 28.880000000000003 C 96.23499999999999 31.000000000000004 95.67499999999998 33 94.59499999999998 34.440000000000005 C 93.15499999999999 36.400000000000006 90.87499999999999 37.32000000000001 87.35499999999999 37.32000000000001 C 85.31499999999998 37.32000000000001 83.67499999999998 37.040000000000006 82.43499999999999 36.440000000000005 C 79.91499999999999 35.28000000000001 78.39499999999998 32.68000000000001 78.39499999999998 28.880000000000006 L 78.39499999999998 14.600000000000007 L 79.83499999999998 14.600000000000007 L 79.83499999999998 28.880000000000006 C 79.83499999999998 33.400000000000006 82.43499999999997 35.88000000000001 87.35499999999998 35.88000000000001 C 92.27499999999998 35.88000000000001 94.79499999999997 33.40000000000001 94.79499999999997 28.88000000000001 L 94.79499999999997 13.48000000000001 L 93.55499999999998 13.48000000000001 L 93.55499999999998 28.88000000000001 C 93.55499999999998 32.40000000000001 91.19499999999998 34.64000000000001 87.23499999999999 34.64000000000001 C 83.23499999999999 34.64000000000001 81.11499999999998 32.60000000000001 81.11499999999998 28.88000000000001 L 81.11499999999998 13.48000000000001 L 77.15499999999999 13.48000000000001 L 77.15499999999999 28.88000000000001 C 77.15499999999999 35.24000000000001 80.67499999999998 38.56000000000001 87.43499999999999 38.56000000000001 C 90.95499999999998 38.56000000000001 93.35499999999999 37.720000000000006 94.99499999999999 36.00000000000001 C 96.63499999999999 34.28000000000001 97.51499999999999 31.800000000000008 97.51499999999999 28.880000000000006 L 97.51499999999999 12.040000000000006 L 98.95499999999998 12.040000000000006 L 98.95499999999998 28.880000000000006 C 98.95499999999998 32.24000000000001 97.91499999999998 35.040000000000006 95.99499999999999 37.00000000000001 C 94.07499999999999 39.00000000000001 91.23499999999999 40.00000000000001 87.43499999999999 40.00000000000001 z M 108.38 33.4 C 110.33999999999999 34.28 112.06 34.72 113.5 34.72 C 114.22 34.72 114.66 34.68 114.86 34.56 C 115.78 34.32 116.42 33.800000000000004 116.82 33 L 116.86 32.92 C 117.06 32.56 117.14 32.120000000000005 117.14 31.560000000000002 C 117.14 31.28 117.06 30.96 116.9 30.560000000000002 L 116.82000000000001 30.400000000000002 C 116.30000000000001 29.32 115.14 28.6 113.02000000000001 27.92 L 112.62 27.8 L 112.5 27.76 C 109.26 26.8 107.18 25.28 106.18 23.160000000000004 C 105.78 22.360000000000003 105.58000000000001 21.480000000000004 105.58000000000001 20.520000000000003 C 105.58000000000001 19.520000000000003 105.78000000000002 18.560000000000002 106.18 17.560000000000002 L 106.26 17.400000000000002 C 107.18 15.560000000000002 108.66000000000001 14.360000000000003 110.62 13.760000000000002 C 112.02000000000001 13.560000000000002 112.82000000000001 13.440000000000001 113.02000000000001 13.440000000000001 C 115.74000000000001 13.440000000000001 118.9 14.560000000000002 122.46000000000001 16.76 L 123.22000000000001 15.520000000000001 C 119.34000000000002 13.160000000000002 115.98000000000002 12.000000000000002 113.06000000000002 12.000000000000002 C 111.90000000000002 12.000000000000002 110.94000000000001 12.120000000000001 110.26000000000002 12.400000000000002 C 107.90000000000002 13.040000000000003 106.14000000000001 14.480000000000002 104.98000000000002 16.76 L 104.86000000000001 17.040000000000003 C 104.38000000000001 18.200000000000003 104.14000000000001 19.360000000000003 104.14000000000001 20.520000000000003 C 104.14000000000001 21.76 104.38000000000001 22.840000000000003 104.86000000000001 23.800000000000004 C 106.10000000000001 26.280000000000005 108.50000000000001 28.040000000000006 112.10000000000001 29.120000000000005 L 112.58000000000001 29.280000000000005 C 114.22000000000001 29.800000000000004 115.18 30.360000000000007 115.54 31.000000000000004 L 115.58000000000001 31.080000000000002 C 115.66000000000001 31.200000000000003 115.70000000000002 31.360000000000003 115.70000000000002 31.560000000000002 C 115.70000000000002 31.92 115.66000000000001 32.160000000000004 115.54000000000002 32.36 C 115.26000000000002 33 114.58000000000003 33.32 113.50000000000001 33.32 C 111.78000000000002 33.32 109.30000000000001 32.44 107.38000000000001 31.2 L 106.78000000000002 30.84 L 103.26000000000002 36.519999999999996 L 103.86000000000001 36.879999999999995 C 106.70000000000002 38.8 110.46000000000001 39.99999999999999 113.50000000000001 39.99999999999999 C 114.50000000000001 39.99999999999999 115.42000000000002 39.879999999999995 116.26000000000002 39.63999999999999 C 118.62000000000002 38.959999999999994 120.38000000000002 37.47999999999999 121.54000000000002 35.239999999999995 L 121.70000000000002 34.959999999999994 C 122.18000000000002 33.71999999999999 122.42000000000002 32.559999999999995 122.42000000000002 31.479999999999993 C 122.42000000000002 30.519999999999992 122.10000000000002 29.319999999999993 121.50000000000001 27.839999999999993 C 120.42000000000002 25.679999999999993 118.14000000000001 24.039999999999992 114.58000000000001 22.919999999999995 L 114.02000000000001 22.759999999999994 C 112.9 22.399999999999995 112.14000000000001 22.039999999999996 111.78000000000002 21.759999999999994 C 111.30000000000001 21.359999999999996 111.02000000000001 21.079999999999995 110.90000000000002 20.919999999999995 L 110.82000000000002 20.479999999999993 C 110.82000000000002 20.079999999999995 110.90000000000002 19.71999999999999 111.10000000000002 19.439999999999994 C 111.42000000000002 18.839999999999993 111.74000000000002 18.679999999999993 113.02000000000002 18.679999999999993 C 114.74000000000002 18.679999999999993 117.22000000000003 19.55999999999999 119.14000000000003 20.799999999999994 L 119.74000000000002 21.159999999999993 L 121.90000000000002 17.71999999999999 L 121.26000000000002 17.359999999999992 C 118.82000000000002 15.759999999999993 115.50000000000001 14.639999999999992 113.06000000000002 14.639999999999992 C 111.98000000000002 14.639999999999992 111.30000000000001 14.719999999999992 110.94000000000001 14.919999999999991 C 109.30000000000001 15.399999999999991 108.06000000000002 16.43999999999999 107.26 17.999999999999993 C 106.9 18.679999999999993 106.74000000000001 19.479999999999993 106.74000000000001 20.479999999999993 C 106.74000000000001 21.239999999999995 106.9 21.959999999999994 107.22000000000001 22.639999999999993 C 108.06000000000002 24.439999999999994 109.94000000000001 25.759999999999994 112.86000000000001 26.639999999999993 L 113.38000000000001 26.799999999999994 L 114.46000000000001 27.199999999999992 C 115.06 27.43999999999999 115.7 27.75999999999999 116.42 28.159999999999993 C 117.7 28.919999999999995 118.34 29.999999999999993 118.34 31.439999999999994 C 118.34 32.239999999999995 118.14 32.99999999999999 117.78 33.67999999999999 C 116.94 35.15999999999999 115.5 35.919999999999995 113.5 35.919999999999995 C 112.14 35.919999999999995 110.22 35.39999999999999 107.74 34.39999999999999 L 107.05999999999999 35.55999999999999 L 107.01999999999998 35.639999999999986 C 109.29999999999998 36.79999999999998 111.45999999999998 37.359999999999985 113.53999999999998 37.359999999999985 C 114.69999999999997 37.359999999999985 115.77999999999997 37.11999999999998 116.73999999999998 36.639999999999986 C 118.61999999999998 35.719999999999985 119.77999999999999 33.79999999999998 119.77999999999999 31.399999999999984 C 119.77999999999999 27.599999999999984 116.85999999999999 26.479999999999983 113.77999999999999 25.399999999999984 L 113.25999999999999 25.239999999999984 C 110.74 24.479999999999983 109.17999999999999 23.439999999999984 108.53999999999999 22.039999999999985 C 108.3 21.559999999999985 108.17999999999999 21.039999999999985 108.17999999999999 20.439999999999984 C 108.17999999999999 19.679999999999982 108.3 19.079999999999984 108.58 18.559999999999985 C 109.22 17.399999999999984 110.14 16.639999999999986 111.34 16.279999999999983 L 112.94 16.079999999999984 C 115.06 16.079999999999984 117.38 16.799999999999983 119.89999999999999 18.199999999999985 L 119.25999999999999 19.199999999999985 C 116.66 17.919999999999984 114.57999999999998 17.279999999999987 113.05999999999999 17.279999999999987 C 112.29999999999998 17.279999999999987 111.85999999999999 17.319999999999986 111.65999999999998 17.439999999999987 C 110.77999999999999 17.679999999999986 110.13999999999999 18.19999999999999 109.69999999999999 19.03999999999999 L 109.65999999999998 19.119999999999987 C 109.45999999999998 19.479999999999986 109.37999999999998 19.959999999999987 109.37999999999998 20.559999999999988 C 109.37999999999998 20.99999999999999 109.45999999999998 21.31999999999999 109.57999999999998 21.51999999999999 C 110.09999999999998 22.599999999999987 111.45999999999998 23.47999999999999 113.61999999999999 24.11999999999999 L 114.13999999999999 24.27999999999999 L 115.13999999999999 24.59999999999999 C 115.25999999999999 24.63999999999999 115.89999999999999 24.91999999999999 117.05999999999999 25.47999999999999 C 118.61999999999999 26.35999999999999 119.74 27.47999999999999 120.37999999999998 28.79999999999999 C 120.77999999999999 29.59999999999999 120.97999999999998 30.47999999999999 120.97999999999998 31.43999999999999 C 120.97999999999998 32.59999999999999 120.77999999999997 33.599999999999994 120.33999999999997 34.43999999999999 L 120.25999999999998 34.59999999999999 C 119.33999999999997 36.43999999999999 117.85999999999997 37.639999999999986 115.89999999999998 38.23999999999999 C 114.49999999999997 38.43999999999999 113.69999999999997 38.55999999999999 113.49999999999997 38.55999999999999 C 111.45999999999997 38.55999999999999 108.81999999999996 37.79999999999999 106.37999999999997 36.639999999999986 L 105.25999999999996 36.039999999999985 L 107.25999999999996 32.79999999999998 z M 137.005 17.2 L 146.565 17.2 L 146.565 13.399999999999999 L 129.565 13.399999999999999 L 129.565 14.639999999999999 L 145.20499999999998 14.639999999999999 L 145.20499999999998 16.08 L 128.125 16.08 L 128.125 11.959999999999997 L 148.005 11.959999999999997 L 148.005 18.639999999999997 L 138.445 18.639999999999997 L 138.445 37.36 L 137.005 37.36 L 137.005 17.2 z M 134.325 18.64 L 128.125 18.64 L 128.125 17.2 L 135.765 17.2 L 135.765 38.519999999999996 L 139.765 38.519999999999996 L 139.765 19.879999999999995 L 141.20499999999998 19.879999999999995 L 141.20499999999998 40 L 134.325 40 L 134.325 18.64 z M 173.95 38.56 L 169.35 38.56 L 163.82999999999998 28.28 L 160.10999999999999 28.32 L 160.10999999999999 38.56 L 156.07 38.56 L 156.07 12.000000000000004 L 154.63 12.000000000000004 L 154.63 40 L 161.59 40 L 161.59 29.72 L 162.99 29.72 L 168.47 40 L 176.35 40 L 170.82999999999998 29.68 L 169.51 30.2 z M 164.42999999999998 13.440000000000001 C 170.23 13.440000000000001 173.51 16.040000000000003 173.51 20.8 C 173.51 25.12 170.91 27.76 166.39 28.240000000000002 L 165.30999999999997 28.360000000000003 L 170.30999999999997 37.6 L 171.94999999999996 37.6 L 167.58999999999995 29.480000000000004 C 172.38999999999996 28.640000000000004 174.94999999999996 25.720000000000006 174.94999999999996 20.800000000000004 C 174.94999999999996 19.160000000000004 174.58999999999995 17.680000000000003 173.90999999999997 16.360000000000003 C 172.30999999999997 13.520000000000003 169.02999999999997 12.000000000000004 164.42999999999998 12.000000000000004 L 157.34999999999997 12.000000000000004 L 157.34999999999997 37.56 L 158.78999999999996 37.56 L 158.78999999999996 13.440000000000001 L 164.42999999999995 13.440000000000001 z M 164.10999999999999 27.04 C 169.58999999999997 27.04 172.19 25.16 172.19 21 C 172.19 17.04 169.47 14.8 165.10999999999999 14.8 L 160.07 14.8 L 160.07 19 L 164.67 19 C 166.79 19 167.86999999999998 19.6 167.86999999999998 20.8 C 167.86999999999998 22.2 166.54999999999998 22.880000000000003 163.86999999999998 22.880000000000003 L 161.54999999999998 22.880000000000003 L 161.54999999999998 20.400000000000002 L 160.07 20.400000000000002 L 160.07 24.32 L 163.87 24.32 C 167.43 24.32 169.31 23.080000000000002 169.31 20.8 C 169.31 20.080000000000002 169.15 19.52 168.79 19.080000000000002 C 168.10999999999999 18.080000000000002 166.75 17.6 164.67 17.6 L 161.54999999999998 17.6 L 161.54999999999998 16.240000000000002 L 165.10999999999999 16.240000000000002 C 168.67 16.240000000000002 170.74999999999997 17.96 170.74999999999997 21 C 170.74999999999997 24.16 168.62999999999997 25.64 164.10999999999999 25.64 L 160.10999999999999 25.64 L 160.10999999999999 27.04 L 164.10999999999999 27.04 z M 183.65499999999997 12 L 187.85499999999996 12 L 187.85499999999996 37.32 L 186.41499999999996 37.32 L 186.41499999999996 13.440000000000001 L 185.09499999999997 13.440000000000001 L 185.09499999999997 38.56 L 189.13499999999996 38.56 L 189.13499999999996 12.000000000000004 L 190.57499999999996 12.000000000000004 L 190.57499999999996 40 L 183.65499999999997 40 L 183.65499999999997 12 z M 196.27999999999997 12.079999999999998 L 197.71999999999997 12.079999999999998 L 197.71999999999997 38.56 L 213.03999999999996 38.56 L 213.03999999999996 34.56 L 201.75999999999996 34.56 L 201.75999999999996 30.720000000000002 L 203.19999999999996 30.720000000000002 L 203.19999999999996 33.120000000000005 L 214.47999999999996 33.120000000000005 L 214.47999999999996 40.00000000000001 L 196.27999999999997 40.00000000000001 L 196.27999999999997 12.080000000000005 z M 198.99999999999997 12.079999999999998 L 214.27999999999997 12.079999999999998 L 214.27999999999997 18.919999999999998 L 204.67999999999998 18.919999999999998 L 204.67999999999998 17.479999999999997 L 212.83999999999997 17.479999999999997 L 212.83999999999997 13.519999999999996 L 200.43999999999997 13.519999999999996 L 200.43999999999997 25.08 L 209.75999999999996 25.08 L 209.75999999999996 26.52 L 198.99999999999997 26.52 L 198.99999999999997 12.08 z M 198.99999999999997 27.8 L 211.15999999999997 27.8 L 211.15999999999997 23.8 L 201.75999999999996 23.8 L 201.75999999999996 14.72 L 211.43999999999997 14.72 L 211.43999999999997 16.16 L 203.19999999999996 16.16 L 203.19999999999996 22.36 L 212.59999999999997 22.36 L 212.59999999999997 29.24 L 200.43999999999997 29.24 L 200.43999999999997 35.879999999999995 L 211.63999999999996 35.879999999999995 L 211.63999999999996 37.31999999999999 L 198.99999999999994 37.31999999999999 L 198.99999999999994 27.799999999999994 z M 224.42499999999998 33.4 C 226.385 34.28 228.105 34.72 229.545 34.72 C 230.265 34.72 230.70499999999998 34.68 230.905 34.56 C 231.825 34.32 232.465 33.800000000000004 232.865 33 L 232.905 32.92 C 233.105 32.56 233.185 32.120000000000005 233.185 31.560000000000002 C 233.185 31.28 233.105 30.96 232.945 30.560000000000002 L 232.86499999999998 30.400000000000002 C 232.34499999999997 29.32 231.18499999999997 28.6 229.06499999999997 27.92 L 228.66499999999996 27.8 L 228.54499999999996 27.76 C 225.30499999999995 26.8 223.22499999999997 25.28 222.22499999999997 23.160000000000004 C 221.82499999999996 22.360000000000003 221.62499999999997 21.480000000000004 221.62499999999997 20.520000000000003 C 221.62499999999997 19.520000000000003 221.82499999999996 18.560000000000002 222.22499999999997 17.560000000000002 L 222.30499999999998 17.400000000000002 C 223.22499999999997 15.560000000000002 224.70499999999998 14.360000000000003 226.665 13.760000000000002 C 228.065 13.560000000000002 228.86499999999998 13.440000000000001 229.065 13.440000000000001 C 231.785 13.440000000000001 234.945 14.560000000000002 238.505 16.76 L 239.265 15.520000000000001 C 235.385 13.160000000000002 232.02499999999998 12.000000000000002 229.105 12.000000000000002 C 227.945 12.000000000000002 226.98499999999999 12.120000000000001 226.30499999999998 12.400000000000002 C 223.94499999999996 13.040000000000003 222.18499999999997 14.480000000000002 221.02499999999998 16.76 L 220.90499999999997 17.040000000000003 C 220.42499999999998 18.200000000000003 220.18499999999997 19.360000000000003 220.18499999999997 20.520000000000003 C 220.18499999999997 21.76 220.42499999999998 22.840000000000003 220.90499999999997 23.800000000000004 C 222.14499999999998 26.280000000000005 224.54499999999996 28.040000000000006 228.14499999999998 29.120000000000005 L 228.62499999999997 29.280000000000005 C 230.26499999999996 29.800000000000004 231.22499999999997 30.360000000000007 231.58499999999998 31.000000000000004 L 231.62499999999997 31.080000000000002 C 231.70499999999998 31.200000000000003 231.74499999999998 31.360000000000003 231.74499999999998 31.560000000000002 C 231.74499999999998 31.92 231.70499999999998 32.160000000000004 231.58499999999998 32.36 C 231.30499999999998 33 230.62499999999997 33.32 229.545 33.32 C 227.825 33.32 225.345 32.44 223.42499999999998 31.2 L 222.825 30.84 L 219.30499999999998 36.519999999999996 L 219.90499999999997 36.879999999999995 C 222.74499999999998 38.8 226.50499999999997 39.99999999999999 229.54499999999996 39.99999999999999 C 230.54499999999996 39.99999999999999 231.46499999999995 39.879999999999995 232.30499999999995 39.63999999999999 C 234.66499999999996 38.959999999999994 236.42499999999995 37.47999999999999 237.58499999999995 35.239999999999995 L 237.74499999999995 34.959999999999994 C 238.22499999999994 33.71999999999999 238.46499999999995 32.559999999999995 238.46499999999995 31.479999999999993 C 238.46499999999995 30.519999999999992 238.14499999999995 29.319999999999993 237.54499999999996 27.839999999999993 C 236.46499999999995 25.679999999999993 234.18499999999995 24.039999999999992 230.62499999999997 22.919999999999995 L 230.06499999999997 22.759999999999994 C 228.94499999999996 22.399999999999995 228.18499999999997 22.039999999999996 227.82499999999996 21.759999999999994 C 227.34499999999997 21.359999999999996 227.06499999999997 21.079999999999995 226.94499999999996 20.919999999999995 L 226.86499999999995 20.479999999999993 C 226.86499999999995 20.079999999999995 226.94499999999996 19.71999999999999 227.14499999999995 19.439999999999994 C 227.46499999999995 18.839999999999993 227.78499999999994 18.679999999999993 229.06499999999994 18.679999999999993 C 230.78499999999994 18.679999999999993 233.26499999999993 19.55999999999999 235.18499999999995 20.799999999999994 L 235.78499999999994 21.159999999999993 L 237.94499999999994 17.71999999999999 L 237.30499999999995 17.359999999999992 C 234.86499999999995 15.759999999999993 231.54499999999996 14.639999999999992 229.10499999999996 14.639999999999992 C 228.02499999999995 14.639999999999992 227.34499999999997 14.719999999999992 226.98499999999996 14.919999999999991 C 225.34499999999997 15.399999999999991 224.10499999999996 16.43999999999999 223.30499999999995 17.999999999999993 C 222.94499999999994 18.679999999999993 222.78499999999994 19.479999999999993 222.78499999999994 20.479999999999993 C 222.78499999999994 21.239999999999995 222.94499999999994 21.959999999999994 223.26499999999993 22.639999999999993 C 224.10499999999993 24.439999999999994 225.98499999999993 25.759999999999994 228.90499999999992 26.639999999999993 L 229.42499999999993 26.799999999999994 L 230.50499999999994 27.199999999999992 C 231.10499999999993 27.43999999999999 231.74499999999995 27.75999999999999 232.46499999999995 28.159999999999993 C 233.74499999999995 28.919999999999995 234.38499999999993 29.999999999999993 234.38499999999993 31.439999999999994 C 234.38499999999993 32.239999999999995 234.18499999999995 32.99999999999999 233.82499999999993 33.67999999999999 C 232.98499999999993 35.15999999999999 231.54499999999993 35.919999999999995 229.54499999999993 35.919999999999995 C 228.18499999999992 35.919999999999995 226.26499999999993 35.39999999999999 223.78499999999994 34.39999999999999 L 223.10499999999993 35.55999999999999 L 223.06499999999994 35.639999999999986 C 225.34499999999994 36.79999999999998 227.50499999999994 37.359999999999985 229.58499999999995 37.359999999999985 C 230.74499999999995 37.359999999999985 231.82499999999996 37.11999999999998 232.78499999999994 36.639999999999986 C 234.66499999999994 35.719999999999985 235.82499999999993 33.79999999999998 235.82499999999993 31.399999999999984 C 235.82499999999993 27.599999999999984 232.90499999999994 26.479999999999983 229.82499999999993 25.399999999999984 L 229.30499999999992 25.239999999999984 C 226.7849999999999 24.479999999999983 225.2249999999999 23.439999999999984 224.58499999999992 22.039999999999985 C 224.3449999999999 21.559999999999985 224.2249999999999 21.039999999999985 224.2249999999999 20.439999999999984 C 224.2249999999999 19.679999999999982 224.3449999999999 19.079999999999984 224.62499999999991 18.559999999999985 C 225.2649999999999 17.399999999999984 226.18499999999992 16.639999999999986 227.3849999999999 16.279999999999983 L 228.9849999999999 16.079999999999984 C 231.1049999999999 16.079999999999984 233.4249999999999 16.799999999999983 235.9449999999999 18.199999999999985 L 235.30499999999992 19.199999999999985 C 232.70499999999993 17.919999999999984 230.62499999999991 17.279999999999987 229.10499999999993 17.279999999999987 C 228.34499999999994 17.279999999999987 227.90499999999994 17.319999999999986 227.70499999999993 17.439999999999987 C 226.82499999999993 17.679999999999986 226.18499999999992 18.19999999999999 225.74499999999992 19.03999999999999 L 225.70499999999993 19.119999999999987 C 225.50499999999994 19.479999999999986 225.42499999999993 19.959999999999987 225.42499999999993 20.559999999999988 C 225.42499999999993 20.99999999999999 225.50499999999994 21.31999999999999 225.62499999999991 21.51999999999999 C 226.14499999999992 22.599999999999987 227.5049999999999 23.47999999999999 229.6649999999999 24.11999999999999 L 230.18499999999992 24.27999999999999 L 231.18499999999992 24.59999999999999 C 231.30499999999992 24.63999999999999 231.9449999999999 24.91999999999999 233.1049999999999 25.47999999999999 C 234.6649999999999 26.35999999999999 235.7849999999999 27.47999999999999 236.4249999999999 28.79999999999999 C 236.8249999999999 29.59999999999999 237.0249999999999 30.47999999999999 237.0249999999999 31.43999999999999 C 237.0249999999999 32.59999999999999 236.8249999999999 33.599999999999994 236.3849999999999 34.43999999999999 L 236.3049999999999 34.59999999999999 C 235.3849999999999 36.43999999999999 233.9049999999999 37.639999999999986 231.94499999999988 38.23999999999999 C 230.54499999999987 38.43999999999999 229.7449999999999 38.55999999999999 229.54499999999987 38.55999999999999 C 227.50499999999988 38.55999999999999 224.86499999999987 37.79999999999999 222.42499999999987 36.639999999999986 L 221.30499999999986 36.039999999999985 L 223.30499999999986 32.79999999999998 z" stroke-linecap="round" />
</g>
</g>
</g>
</svg>